<svg width="87" height="22" viewBox="0 0 87 22" fill="none" xmlns="http://www.w3.org/2000/svg">
<path d="M12.6023 5.72727C12.483 4.7197 11.9991 3.9375 11.1506 3.38068C10.3021 2.82386 9.26136 2.54545 8.02841 2.54545C7.12689 2.54545 6.33807 2.69129 5.66193 2.98295C4.99242 3.27462 4.46875 3.67566 4.09091 4.18608C3.7197 4.6965 3.53409 5.27651 3.53409 5.92614C3.53409 6.4697 3.66335 6.93703 3.92188 7.32812C4.18703 7.71259 4.52509 8.03409 4.93608 8.29261C5.34706 8.54451 5.77794 8.75331 6.22869 8.91903C6.67945 9.07812 7.09375 9.20739 7.47159 9.30682L9.53977 9.86364C10.0701 10.0028 10.66 10.1951 11.3097 10.4403C11.9659 10.6856 12.5923 11.0204 13.1889 11.4446C13.7921 11.8622 14.2893 12.3991 14.6804 13.0554C15.0715 13.7116 15.267 14.517 15.267 15.4716C15.267 16.572 14.9787 17.5663 14.402 18.4545C13.8319 19.3428 12.9967 20.0488 11.8963 20.5724C10.8026 21.0961 9.47349 21.358 7.90909 21.358C6.45076 21.358 5.18797 21.1226 4.12074 20.652C3.06013 20.1813 2.22491 19.5251 1.61506 18.6832C1.01184 17.8414 0.670455 16.8636 0.590909 15.75H3.13636C3.20265 16.5189 3.46117 17.1553 3.91193 17.6591C4.36932 18.1562 4.94602 18.5275 5.64205 18.7727C6.3447 19.0114 7.10038 19.1307 7.90909 19.1307C8.85038 19.1307 9.69555 18.9782 10.4446 18.6733C11.1937 18.3617 11.7869 17.9309 12.2244 17.3807C12.6619 16.8239 12.8807 16.1742 12.8807 15.4318C12.8807 14.7557 12.6918 14.2055 12.3139 13.7812C11.9361 13.357 11.4389 13.0123 10.8224 12.7472C10.206 12.482 9.53977 12.25 8.82386 12.0511L6.31818 11.3352C4.72727 10.8778 3.4678 10.2249 2.53977 9.37642C1.61174 8.52794 1.14773 7.41761 1.14773 6.04545C1.14773 4.9053 1.45597 3.91098 2.07244 3.0625C2.69555 2.20739 3.53078 1.54451 4.57812 1.07386C5.6321 0.59659 6.80871 0.357954 8.10795 0.357954C9.42045 0.357954 10.5871 0.593276 11.608 1.06392C12.6288 1.52793 13.4375 2.1643 14.0341 2.97301C14.6373 3.78172 14.9555 4.69981 14.9886 5.72727H12.6023ZM19.3214 21V0.636363H31.5316V2.82386H21.7873V9.70455H30.6168V11.892H21.7873V21H19.3214ZM35.755 21V0.636363H48.0447V2.82386H38.2209V9.70455H47.4084V11.892H38.2209V18.8125H48.2038V21H35.755ZM52.4893 21V0.636363H59.37C60.9609 0.636363 62.2668 0.908143 63.2876 1.4517C64.3085 1.98864 65.0642 2.72775 65.5547 3.66903C66.0452 4.61032 66.2905 5.68087 66.2905 6.88068C66.2905 8.08049 66.0452 9.14441 65.5547 10.0724C65.0642 11.0005 64.3118 11.7296 63.2976 12.2599C62.2834 12.7836 60.9875 13.0455 59.4098 13.0455H53.8416V10.8182H59.3303C60.4174 10.8182 61.2924 10.6591 61.9553 10.3409C62.6248 10.0227 63.1087 9.57197 63.407 8.98864C63.7119 8.39867 63.8643 7.69602 63.8643 6.88068C63.8643 6.06534 63.7119 5.35275 63.407 4.7429C63.102 4.13305 62.6148 3.66241 61.9453 3.33097C61.2758 2.9929 60.3909 2.82386 59.2905 2.82386H54.9553V21H52.4893ZM62.0746 11.8523L67.0859 21H64.2223L59.2905 11.8523H62.0746ZM71.2347 21H68.6495L76.1268 0.636363H78.6722L86.1495 21H83.5643L77.479 3.85795H77.32L71.2347 21ZM72.1893 13.0455H82.6097V15.233H72.1893V13.0455Z" fill="white"/>
</svg>
