<svg width="1920" height="440" viewBox="0 0 1920 440" fill="none" xmlns="http://www.w3.org/2000/svg">
<g filter="url(#filter0_f_428_962)">
<path d="M-92.9623 79.5782L219.637 305.159L595.094 243.985C623.356 239.38 637.487 237.078 651.399 238.216C665.31 239.354 678.434 243.887 704.68 252.951L957.152 340.148C996.464 353.725 1016.12 360.514 1036.9 359.817C1057.69 359.12 1077.77 350.998 1117.93 334.755L1324.59 251.174C1371.83 232.069 1395.44 222.517 1419.6 223.107C1443.75 223.696 1465.58 234.358 1509.24 255.683L1638.27 318.702C1692.45 345.165 1719.54 358.397 1749.13 356.506C1778.73 354.615 1805.73 337.927 1859.73 304.552L2056.51 182.927" stroke="white" stroke-opacity="0.7" stroke-width="2.24493"/>
</g>
<defs>
<filter id="filter0_f_428_962" x="-172.237" y="0.101158" width="2307.87" height="439.442" filterUnits="userSpaceOnUse" color-interpolation-filters="sRGB">
<feFlood flood-opacity="0" result="BackgroundImageFix"/>
<feBlend mode="normal" in="SourceGraphic" in2="BackgroundImageFix" result="shape"/>
<feGaussianBlur stdDeviation="39.2862" result="effect1_foregroundBlur_428_962"/>
</filter>
</defs>
</svg>
